<mxfile host="Electron" modified="2023-08-25T16:31:57.460Z" agent="Mozilla/5.0 (Windows NT 10.0; Win64; x64) AppleWebKit/537.36 (KHTML, like Gecko) draw.io/21.6.8 Chrome/114.0.5735.289 Electron/25.5.0 Safari/537.36" etag="5xSC_26PzfSVLoopY2RV" version="21.6.8" type="device">
  <diagram name="Page-1" id="DOlFsJQFJfXhihcVREWI">
    <mxGraphModel dx="2015" dy="1076" grid="1" gridSize="10" guides="1" tooltips="1" connect="1" arrows="1" fold="1" page="1" pageScale="1" pageWidth="1169" pageHeight="827" math="0" shadow="0">
      <root>
        <mxCell id="0" />
        <mxCell id="1" parent="0" />
        <mxCell id="wgWyfdXDKguZ-T_XWsIP-1" value="&lt;b&gt;ExcelReader&lt;/b&gt;&lt;br&gt;" style="swimlane;fontStyle=0;align=center;verticalAlign=top;childLayout=stackLayout;horizontal=1;startSize=55;horizontalStack=0;resizeParent=1;resizeParentMax=0;resizeLast=0;collapsible=0;marginBottom=0;html=1;whiteSpace=wrap;" vertex="1" parent="1">
          <mxGeometry x="260" y="70" width="220" height="325" as="geometry" />
        </mxCell>
        <mxCell id="wgWyfdXDKguZ-T_XWsIP-2" value="attributes" style="text;html=1;strokeColor=none;fillColor=none;align=center;verticalAlign=middle;spacingLeft=4;spacingRight=4;overflow=hidden;rotatable=0;points=[[0,0.5],[1,0.5]];portConstraint=eastwest;whiteSpace=wrap;" vertex="1" parent="wgWyfdXDKguZ-T_XWsIP-1">
          <mxGeometry y="55" width="220" height="20" as="geometry" />
        </mxCell>
        <mxCell id="wgWyfdXDKguZ-T_XWsIP-3" value="filename: string&lt;br&gt;correctAuthor: string&lt;br&gt;correctDate: date&lt;br&gt;units: pdDataFrame[3]&lt;br&gt;unusedColums: string[3]" style="text;html=1;strokeColor=none;fillColor=none;align=left;verticalAlign=middle;spacingLeft=4;spacingRight=4;overflow=hidden;rotatable=0;points=[[0,0.5],[1,0.5]];portConstraint=eastwest;whiteSpace=wrap;" vertex="1" parent="wgWyfdXDKguZ-T_XWsIP-1">
          <mxGeometry y="75" width="220" height="75" as="geometry" />
        </mxCell>
        <mxCell id="wgWyfdXDKguZ-T_XWsIP-6" value="" style="line;strokeWidth=1;fillColor=none;align=left;verticalAlign=middle;spacingTop=-1;spacingLeft=3;spacingRight=3;rotatable=0;labelPosition=right;points=[];portConstraint=eastwest;" vertex="1" parent="wgWyfdXDKguZ-T_XWsIP-1">
          <mxGeometry y="150" width="220" height="8" as="geometry" />
        </mxCell>
        <mxCell id="wgWyfdXDKguZ-T_XWsIP-7" value="operations" style="text;html=1;strokeColor=none;fillColor=none;align=center;verticalAlign=middle;spacingLeft=4;spacingRight=4;overflow=hidden;rotatable=0;points=[[0,0.5],[1,0.5]];portConstraint=eastwest;whiteSpace=wrap;" vertex="1" parent="wgWyfdXDKguZ-T_XWsIP-1">
          <mxGeometry y="158" width="220" height="20" as="geometry" />
        </mxCell>
        <mxCell id="wgWyfdXDKguZ-T_XWsIP-8" value="checkFileExistance(): bool&lt;br&gt;checkFileType(): bool&lt;br&gt;checkFileAuthor(): bool&lt;br&gt;checkFileDate(): DateRelative&lt;br&gt;checkCorrectFile(): bool&lt;br&gt;readExcel(): void&lt;br&gt;removeUnusedColumns(): void&lt;br&gt;removeInvalidRows(): void&lt;br&gt;returnUnits(): pdDataFrame[3]" style="text;html=1;strokeColor=none;fillColor=none;align=left;verticalAlign=middle;spacingLeft=4;spacingRight=4;overflow=hidden;rotatable=0;points=[[0,0.5],[1,0.5]];portConstraint=eastwest;whiteSpace=wrap;" vertex="1" parent="wgWyfdXDKguZ-T_XWsIP-1">
          <mxGeometry y="178" width="220" height="147" as="geometry" />
        </mxCell>
        <mxCell id="wgWyfdXDKguZ-T_XWsIP-9" value="&amp;lt;&amp;lt;enumeration&amp;gt;&amp;gt;&lt;br&gt;&lt;b&gt;DateRelative&lt;/b&gt;" style="swimlane;fontStyle=0;align=center;verticalAlign=top;childLayout=stackLayout;horizontal=1;startSize=40;horizontalStack=0;resizeParent=1;resizeParentMax=0;resizeLast=0;collapsible=0;marginBottom=0;html=1;whiteSpace=wrap;" vertex="1" parent="1">
          <mxGeometry x="660" y="80" width="140" height="100" as="geometry" />
        </mxCell>
        <mxCell id="wgWyfdXDKguZ-T_XWsIP-10" value="Past&lt;br&gt;Current&lt;br&gt;Future" style="text;html=1;strokeColor=none;fillColor=none;align=left;verticalAlign=middle;spacingLeft=4;spacingRight=4;overflow=hidden;rotatable=0;points=[[0,0.5],[1,0.5]];portConstraint=eastwest;whiteSpace=wrap;" vertex="1" parent="wgWyfdXDKguZ-T_XWsIP-9">
          <mxGeometry y="40" width="140" height="60" as="geometry" />
        </mxCell>
        <mxCell id="wgWyfdXDKguZ-T_XWsIP-12" value="&amp;lt;&amp;lt;use&amp;gt;&amp;gt;" style="endArrow=open;html=1;rounded=0;align=center;verticalAlign=bottom;dashed=1;endFill=0;labelBackgroundColor=none;" edge="1" parent="1" source="wgWyfdXDKguZ-T_XWsIP-1" target="wgWyfdXDKguZ-T_XWsIP-9">
          <mxGeometry relative="1" as="geometry">
            <mxPoint x="500" y="50" as="sourcePoint" />
            <mxPoint x="660" y="50" as="targetPoint" />
          </mxGeometry>
        </mxCell>
        <mxCell id="wgWyfdXDKguZ-T_XWsIP-13" value="" style="resizable=0;html=1;align=center;verticalAlign=top;labelBackgroundColor=none;" connectable="0" vertex="1" parent="wgWyfdXDKguZ-T_XWsIP-12">
          <mxGeometry relative="1" as="geometry" />
        </mxCell>
        <mxCell id="wgWyfdXDKguZ-T_XWsIP-14" value="Package" style="shape=folder;fontStyle=1;tabWidth=110;tabHeight=30;tabPosition=left;html=1;boundedLbl=1;labelInHeader=1;container=1;collapsible=0;whiteSpace=wrap;" vertex="1" parent="1">
          <mxGeometry x="30" y="20" width="150" height="100" as="geometry" />
        </mxCell>
        <mxCell id="wgWyfdXDKguZ-T_XWsIP-15" value="Pandas" style="html=1;strokeColor=none;resizeWidth=1;resizeHeight=1;fillColor=none;part=1;connectable=0;allowArrows=0;deletable=0;whiteSpace=wrap;" vertex="1" parent="wgWyfdXDKguZ-T_XWsIP-14">
          <mxGeometry width="150" height="70" relative="1" as="geometry">
            <mxPoint y="30" as="offset" />
          </mxGeometry>
        </mxCell>
        <mxCell id="wgWyfdXDKguZ-T_XWsIP-16" value="&amp;lt;&amp;lt;use&amp;gt;&amp;gt;" style="endArrow=open;html=1;rounded=0;align=center;verticalAlign=bottom;dashed=1;endFill=0;labelBackgroundColor=none;entryX=0;entryY=0;entryDx=150;entryDy=65;entryPerimeter=0;exitX=-0.009;exitY=0.095;exitDx=0;exitDy=0;exitPerimeter=0;" edge="1" parent="1" source="wgWyfdXDKguZ-T_XWsIP-1" target="wgWyfdXDKguZ-T_XWsIP-14">
          <mxGeometry relative="1" as="geometry">
            <mxPoint x="500" y="50" as="sourcePoint" />
            <mxPoint x="660" y="50" as="targetPoint" />
          </mxGeometry>
        </mxCell>
        <mxCell id="wgWyfdXDKguZ-T_XWsIP-17" value="" style="resizable=0;html=1;align=center;verticalAlign=top;labelBackgroundColor=none;" connectable="0" vertex="1" parent="wgWyfdXDKguZ-T_XWsIP-16">
          <mxGeometry relative="1" as="geometry" />
        </mxCell>
        <mxCell id="wgWyfdXDKguZ-T_XWsIP-19" value="&lt;h1&gt;UML planning for force pool analytics&lt;/h1&gt;&lt;div&gt;Design is work in progress&lt;/div&gt;&lt;div&gt;&lt;br&gt;&lt;/div&gt;" style="text;html=1;strokeColor=none;fillColor=none;spacing=5;spacingTop=-20;whiteSpace=wrap;overflow=hidden;rounded=0;" vertex="1" parent="1">
          <mxGeometry x="920" y="20" width="190" height="120" as="geometry" />
        </mxCell>
      </root>
    </mxGraphModel>
  </diagram>
</mxfile>
